# Blender 4.4.1
# www.blender.org
mtllib testShip.mtl
o 立方体
v -2.959301 -0.496330 1.000000
v -2.959301 0.496330 1.000000
v -2.959301 -0.496330 -1.000000
v -2.959301 0.496330 -1.000000
v 2.959301 -0.496330 1.000000
v 2.959301 0.496330 1.000000
v 2.959301 -0.496330 -1.000000
v 2.959301 0.496330 -1.000000
v 1.972867 -0.496330 -1.000000
v 0.986433 -0.496330 -1.000000
v -0.000000 -0.496330 -1.000000
v -0.986434 -0.496330 -1.000000
v -1.972867 -0.496330 -1.000000
v -1.972867 0.496330 -1.000000
v -0.986433 0.496330 -1.000000
v 0.000000 0.496330 -1.000000
v 0.986434 0.496330 -1.000000
v 1.972867 0.496330 -1.000000
v -1.972867 -0.496330 1.000000
v -0.986433 -0.496330 1.000000
v 0.000000 -0.496330 1.000000
v 0.986434 -0.496330 1.000000
v 1.972867 -0.496330 1.000000
v 1.972867 0.496330 1.000000
v 0.986433 0.496330 1.000000
v -0.000000 0.496330 1.000000
v -0.986434 0.496330 1.000000
v -1.972867 0.496330 1.000000
v -2.959301 -0.496330 -1.000000
v -2.959301 -0.496330 1.000000
v -2.959301 0.496330 1.000000
v -2.959301 0.496330 -1.000000
v -4.527567 -0.307357 -0.619261
v -4.527567 -0.307357 0.619261
v -4.527567 0.307357 0.619261
v -4.527567 0.307357 -0.619261
v -5.000311 -0.142665 -0.287441
v -5.000311 -0.142665 0.287441
v -5.000311 0.142665 0.287441
v -5.000311 0.142665 -0.287441
v 3.827602 0.347001 -0.699134
v 3.827602 -0.347001 -0.699134
v 3.827602 -0.347001 0.699134
v 3.827602 0.347001 0.699134
v 4.140741 0.185218 -0.373175
v 4.140741 -0.185218 -0.373175
v 4.140741 -0.185218 0.373175
v 4.140741 0.185218 0.373175
vn -0.0000 1.0000 -0.0000
vn -0.0000 -0.0000 -1.0000
vn 0.1695 0.9855 -0.0000
vn -0.0000 -0.0000 1.0000
vn -0.0000 -1.0000 -0.0000
vn -0.1196 0.9928 -0.0000
vn -0.5745 -0.0000 -0.8185
vn -0.1196 -0.9928 -0.0000
vn -0.2359 -0.0000 -0.9718
vn -0.2359 -0.0000 0.9718
vn -1.0000 -0.0000 -0.0000
vn -0.5745 -0.0000 0.8185
vn -0.3290 0.9443 -0.0000
vn -0.3290 -0.9443 -0.0000
vn 0.7211 -0.0000 0.6928
vn 0.3274 -0.0000 -0.9449
vn 0.3274 -0.0000 0.9449
vn 0.1695 -0.9855 -0.0000
vn 1.0000 -0.0000 -0.0000
vn 0.4590 -0.8884 -0.0000
vn 0.4590 0.8884 -0.0000
vn 0.7211 -0.0000 -0.6928
vt 0.875000 0.750000
vt 0.875000 0.500000
vt 0.375000 0.458333
vt 0.625000 0.458333
vt 0.625000 0.500000
vt 0.375000 0.500000
vt 0.625000 0.750000
vt 0.375000 0.958333
vt 0.625000 0.958333
vt 0.625000 1.000000
vt 0.375000 1.000000
vt 0.333333 0.500000
vt 0.375000 0.750000
vt 0.333333 0.750000
vt 0.833333 0.500000
vt 0.833333 0.750000
vt 0.666667 0.500000
vt 0.666667 0.750000
vt 0.708333 0.500000
vt 0.708333 0.750000
vt 0.750000 0.500000
vt 0.750000 0.750000
vt 0.791667 0.500000
vt 0.791667 0.750000
vt 0.125000 0.500000
vt 0.166667 0.500000
vt 0.166667 0.750000
vt 0.125000 0.750000
vt 0.208333 0.500000
vt 0.208333 0.750000
vt 0.250000 0.500000
vt 0.250000 0.750000
vt 0.291667 0.500000
vt 0.291667 0.750000
vt 0.625000 0.791667
vt 0.375000 0.791667
vt 0.625000 0.833333
vt 0.375000 0.833333
vt 0.625000 0.875000
vt 0.375000 0.875000
vt 0.625000 0.916667
vt 0.375000 0.916667
vt 0.375000 0.250000
vt 0.625000 0.250000
vt 0.625000 0.291667
vt 0.375000 0.291667
vt 0.625000 0.333333
vt 0.375000 0.333333
vt 0.625000 0.375000
vt 0.375000 0.375000
vt 0.625000 0.416667
vt 0.375000 0.416667
vt 0.375000 0.000000
vt 0.625000 0.000000
s 0
f 2/1/1 4/2/1 32/2/1 31/1/1
f 9/3/2 18/4/2 8/5/2 7/6/2
f 8/5/3 6/7/3 44/7/3 41/5/3
f 19/8/4 28/9/4 2/10/4 1/11/4
f 9/12/5 7/6/5 5/13/5 23/14/5
f 14/15/1 4/2/1 2/1/1 28/16/1
f 8/5/1 18/17/1 24/18/1 6/7/1
f 18/17/1 17/19/1 25/20/1 24/18/1
f 17/19/1 16/21/1 26/22/1 25/20/1
f 16/21/1 15/23/1 27/24/1 26/22/1
f 15/23/1 14/15/1 28/16/1 27/24/1
f 3/25/5 13/26/5 19/27/5 1/28/5
f 13/26/5 12/29/5 20/30/5 19/27/5
f 12/29/5 11/31/5 21/32/5 20/30/5
f 11/31/5 10/33/5 22/34/5 21/32/5
f 10/33/5 9/12/5 23/14/5 22/34/5
f 5/13/4 6/7/4 24/35/4 23/36/4
f 23/36/4 24/35/4 25/37/4 22/38/4
f 22/38/4 25/37/4 26/39/4 21/40/4
f 21/40/4 26/39/4 27/41/4 20/42/4
f 20/42/4 27/41/4 28/9/4 19/8/4
f 3/43/2 4/44/2 14/45/2 13/46/2
f 13/46/2 14/45/2 15/47/2 12/48/2
f 12/48/2 15/47/2 16/49/2 11/50/2
f 11/50/2 16/49/2 17/51/2 10/52/2
f 10/52/2 17/51/2 18/4/2 9/3/2
f 31/1/6 32/2/6 36/2/6 35/1/6
f 3/25/1 1/28/1 30/28/1 29/25/1
f 4/44/1 3/43/1 29/43/1 32/44/1
f 1/11/1 2/10/1 31/10/1 30/11/1
f 36/44/7 33/43/7 37/43/7 40/44/7
f 29/25/8 30/28/8 34/28/8 33/25/8
f 32/44/9 29/43/9 33/43/9 36/44/9
f 30/11/10 31/10/10 35/10/10 34/11/10
f 38/53/11 39/54/11 40/44/11 37/43/11
f 34/11/12 35/10/12 39/10/12 38/11/12
f 35/1/13 36/2/13 40/2/13 39/1/13
f 33/25/14 34/28/14 38/28/14 37/25/14
f 44/7/15 43/13/15 47/13/15 48/7/15
f 7/6/16 8/5/16 41/5/16 42/6/16
f 6/7/17 5/13/17 43/13/17 44/7/17
f 5/13/18 7/6/18 42/6/18 43/13/18
f 46/6/19 45/5/19 48/7/19 47/13/19
f 43/13/20 42/6/20 46/6/20 47/13/20
f 41/5/21 44/7/21 48/7/21 45/5/21
f 42/6/22 41/5/22 45/5/22 46/6/22
o 立方体.001
v -0.819225 0.089317 0.731520
v -0.819225 1.552356 0.731520
v -0.819225 0.089317 -0.731520
v -0.819225 1.552356 -0.731520
v 0.643815 0.089317 0.731520
v 0.643815 1.552356 0.731520
v 0.643815 0.089317 -0.731520
v 0.643815 1.552356 -0.731520
vn -1.0000 -0.0000 -0.0000
vn -0.0000 -0.0000 -1.0000
vn 1.0000 -0.0000 -0.0000
vn -0.0000 -0.0000 1.0000
vn -0.0000 -1.0000 -0.0000
vn -0.0000 1.0000 -0.0000
vt 0.375000 0.000000
vt 0.625000 0.000000
vt 0.625000 0.250000
vt 0.375000 0.250000
vt 0.625000 0.500000
vt 0.375000 0.500000
vt 0.625000 0.750000
vt 0.375000 0.750000
vt 0.625000 1.000000
vt 0.375000 1.000000
vt 0.125000 0.500000
vt 0.125000 0.750000
vt 0.875000 0.500000
vt 0.875000 0.750000
s 0
f 49/55/23 50/56/23 52/57/23 51/58/23
f 51/58/24 52/57/24 56/59/24 55/60/24
f 55/60/25 56/59/25 54/61/25 53/62/25
f 53/62/26 54/61/26 50/63/26 49/64/26
f 51/65/27 55/60/27 53/62/27 49/66/27
f 56/59/28 52/67/28 50/68/28 54/61/28
o 立方体.002
v -0.516097 1.390790 0.731520
v -0.516097 2.494797 0.731520
v -0.516097 1.390790 -0.731520
v -0.516097 2.494797 -0.731520
v 0.568872 1.390790 0.731520
v 0.094953 2.494797 0.731520
v 0.568872 1.390790 -0.731520
v 0.094953 2.494797 -0.731520
vn -1.0000 -0.0000 -0.0000
vn -0.0000 -0.0000 -1.0000
vn 0.9189 0.3945 -0.0000
vn -0.0000 -0.0000 1.0000
vn -0.0000 -1.0000 -0.0000
vn -0.0000 1.0000 -0.0000
vt 0.375000 0.000000
vt 0.625000 0.000000
vt 0.625000 0.250000
vt 0.375000 0.250000
vt 0.625000 0.500000
vt 0.375000 0.500000
vt 0.625000 0.750000
vt 0.375000 0.750000
vt 0.625000 1.000000
vt 0.375000 1.000000
vt 0.125000 0.500000
vt 0.125000 0.750000
vt 0.875000 0.500000
vt 0.875000 0.750000
s 0
f 57/69/29 58/70/29 60/71/29 59/72/29
f 59/72/30 60/71/30 64/73/30 63/74/30
f 63/74/31 64/73/31 62/75/31 61/76/31
f 61/76/32 62/75/32 58/77/32 57/78/32
f 59/79/33 63/74/33 61/76/33 57/80/33
f 64/73/34 60/81/34 58/82/34 62/75/34
o 立方体.003
v -1.693621 0.420202 -0.731520
v -1.693621 1.012482 -0.731520
v -1.693622 0.420202 0.731520
v -1.693622 1.012482 0.731520
v -2.778590 0.420202 -0.731520
v -2.304672 1.002807 -0.731520
v -2.778590 0.420202 0.731520
v -2.304672 1.002807 0.731520
vn 1.0000 -0.0000 -0.0000
vn -0.0000 -0.0000 1.0000
vn -0.7758 0.6310 -0.0000
vn -0.0000 -0.0000 -1.0000
vn -0.0000 -1.0000 -0.0000
vn -0.0158 0.9999 -0.0000
vt 0.375000 0.000000
vt 0.625000 0.000000
vt 0.625000 0.250000
vt 0.375000 0.250000
vt 0.625000 0.500000
vt 0.375000 0.500000
vt 0.625000 0.750000
vt 0.375000 0.750000
vt 0.625000 1.000000
vt 0.375000 1.000000
vt 0.125000 0.500000
vt 0.125000 0.750000
vt 0.875000 0.500000
vt 0.875000 0.750000
s 0
f 65/83/35 66/84/35 68/85/35 67/86/35
f 67/86/36 68/85/36 72/87/36 71/88/36
f 71/88/37 72/87/37 70/89/37 69/90/37
f 69/90/38 70/89/38 66/91/38 65/92/38
f 67/93/39 71/88/39 69/90/39 65/94/39
f 72/87/40 68/95/40 66/96/40 70/89/40
o 円柱
v -3.385376 0.720628 -0.350000
v -2.385376 0.720628 -0.350000
v -3.385376 0.701119 -0.348079
v -2.385376 0.701119 -0.348079
v -3.385376 0.682360 -0.342388
v -2.385376 0.682360 -0.342388
v -3.385376 0.665071 -0.333147
v -2.385376 0.665071 -0.333147
v -3.385376 0.649918 -0.320711
v -2.385376 0.649918 -0.320711
v -3.385376 0.637481 -0.305557
v -2.385376 0.637481 -0.305557
v -3.385376 0.628240 -0.288268
v -2.385376 0.628240 -0.288268
v -3.385376 0.622550 -0.269509
v -2.385376 0.622550 -0.269509
v -3.385376 0.620628 -0.250000
v -2.385376 0.620628 -0.250000
v -3.385376 0.622550 -0.230491
v -2.385376 0.622550 -0.230491
v -3.385376 0.628240 -0.211732
v -2.385376 0.628240 -0.211732
v -3.385376 0.637481 -0.194443
v -2.385376 0.637481 -0.194443
v -3.385376 0.649918 -0.179289
v -2.385376 0.649918 -0.179289
v -3.385376 0.665071 -0.166853
v -2.385376 0.665071 -0.166853
v -3.385376 0.682360 -0.157612
v -2.385376 0.682360 -0.157612
v -3.385376 0.701119 -0.151921
v -2.385376 0.701119 -0.151921
v -3.385376 0.720628 -0.150000
v -2.385376 0.720628 -0.150000
v -3.385376 0.740137 -0.151921
v -2.385376 0.740137 -0.151921
v -3.385376 0.758897 -0.157612
v -2.385376 0.758897 -0.157612
v -3.385376 0.776185 -0.166853
v -2.385376 0.776185 -0.166853
v -3.385376 0.791339 -0.179289
v -2.385376 0.791339 -0.179289
v -3.385376 0.803775 -0.194443
v -2.385376 0.803775 -0.194443
v -3.385376 0.813016 -0.211732
v -2.385376 0.813016 -0.211732
v -3.385376 0.818707 -0.230491
v -2.385376 0.818707 -0.230491
v -3.385376 0.820628 -0.250000
v -2.385376 0.820628 -0.250000
v -3.385376 0.818707 -0.269509
v -2.385376 0.818707 -0.269509
v -3.385376 0.813016 -0.288268
v -2.385376 0.813016 -0.288268
v -3.385376 0.803775 -0.305557
v -2.385376 0.803775 -0.305557
v -3.385376 0.791339 -0.320711
v -2.385376 0.791339 -0.320711
v -3.385376 0.776185 -0.333147
v -2.385376 0.776185 -0.333147
v -3.385376 0.758897 -0.342388
v -2.385376 0.758897 -0.342388
v -3.385376 0.740137 -0.348079
v -2.385376 0.740137 -0.348079
vn -0.0000 -0.0980 -0.9952
vn -0.0000 -0.2903 -0.9569
vn -0.0000 -0.4714 -0.8819
vn -0.0000 -0.6344 -0.7730
vn -0.0000 -0.7730 -0.6344
vn -0.0000 -0.8819 -0.4714
vn -0.0000 -0.9569 -0.2903
vn -0.0000 -0.9952 -0.0980
vn -0.0000 -0.9952 0.0980
vn -0.0000 -0.9569 0.2903
vn -0.0000 -0.8819 0.4714
vn -0.0000 -0.7730 0.6344
vn -0.0000 -0.6344 0.7730
vn -0.0000 -0.4714 0.8819
vn -0.0000 -0.2903 0.9569
vn -0.0000 -0.0980 0.9952
vn -0.0000 0.0980 0.9952
vn -0.0000 0.2903 0.9569
vn -0.0000 0.4714 0.8819
vn -0.0000 0.6344 0.7730
vn -0.0000 0.7730 0.6344
vn -0.0000 0.8819 0.4714
vn -0.0000 0.9569 0.2903
vn -0.0000 0.9952 0.0980
vn -0.0000 0.9952 -0.0980
vn -0.0000 0.9569 -0.2903
vn -0.0000 0.8819 -0.4714
vn -0.0000 0.7730 -0.6344
vn -0.0000 0.6344 -0.7730
vn -0.0000 0.4714 -0.8819
vn 1.0000 -0.0000 -0.0000
vn -0.0000 0.2903 -0.9569
vn -0.0000 0.0980 -0.9952
vn -1.0000 -0.0000 -0.0000
vt 1.000000 0.500000
vt 1.000000 1.000000
vt 0.968750 1.000000
vt 0.968750 0.500000
vt 0.937500 1.000000
vt 0.937500 0.500000
vt 0.906250 1.000000
vt 0.906250 0.500000
vt 0.875000 1.000000
vt 0.875000 0.500000
vt 0.843750 1.000000
vt 0.843750 0.500000
vt 0.812500 1.000000
vt 0.812500 0.500000
vt 0.781250 1.000000
vt 0.781250 0.500000
vt 0.750000 1.000000
vt 0.750000 0.500000
vt 0.718750 1.000000
vt 0.718750 0.500000
vt 0.687500 1.000000
vt 0.687500 0.500000
vt 0.656250 1.000000
vt 0.656250 0.500000
vt 0.625000 1.000000
vt 0.625000 0.500000
vt 0.593750 1.000000
vt 0.593750 0.500000
vt 0.562500 1.000000
vt 0.562500 0.500000
vt 0.531250 1.000000
vt 0.531250 0.500000
vt 0.500000 1.000000
vt 0.500000 0.500000
vt 0.468750 1.000000
vt 0.468750 0.500000
vt 0.437500 1.000000
vt 0.437500 0.500000
vt 0.406250 1.000000
vt 0.406250 0.500000
vt 0.375000 1.000000
vt 0.375000 0.500000
vt 0.343750 1.000000
vt 0.343750 0.500000
vt 0.312500 1.000000
vt 0.312500 0.500000
vt 0.281250 1.000000
vt 0.281250 0.500000
vt 0.250000 1.000000
vt 0.250000 0.500000
vt 0.218750 1.000000
vt 0.218750 0.500000
vt 0.187500 1.000000
vt 0.187500 0.500000
vt 0.156250 1.000000
vt 0.156250 0.500000
vt 0.125000 1.000000
vt 0.125000 0.500000
vt 0.093750 1.000000
vt 0.093750 0.500000
vt 0.062500 1.000000
vt 0.062500 0.500000
vt 0.296822 0.485388
vt 0.250000 0.490000
vt 0.203178 0.485388
vt 0.158156 0.471731
vt 0.116663 0.449553
vt 0.080294 0.419706
vt 0.050447 0.383337
vt 0.028269 0.341844
vt 0.014612 0.296822
vt 0.010000 0.250000
vt 0.014612 0.203178
vt 0.028269 0.158156
vt 0.050447 0.116663
vt 0.080294 0.080294
vt 0.116663 0.050447
vt 0.158156 0.028269
vt 0.203178 0.014612
vt 0.250000 0.010000
vt 0.296822 0.014612
vt 0.341844 0.028269
vt 0.383337 0.050447
vt 0.419706 0.080294
vt 0.449553 0.116663
vt 0.471731 0.158156
vt 0.485388 0.203178
vt 0.490000 0.250000
vt 0.485388 0.296822
vt 0.471731 0.341844
vt 0.449553 0.383337
vt 0.419706 0.419706
vt 0.383337 0.449553
vt 0.341844 0.471731
vt 0.031250 1.000000
vt 0.031250 0.500000
vt 0.000000 1.000000
vt 0.000000 0.500000
vt 0.750000 0.490000
vt 0.796822 0.485388
vt 0.841844 0.471731
vt 0.883337 0.449553
vt 0.919706 0.419706
vt 0.949553 0.383337
vt 0.971731 0.341844
vt 0.985388 0.296822
vt 0.990000 0.250000
vt 0.985388 0.203178
vt 0.971731 0.158156
vt 0.949553 0.116663
vt 0.919706 0.080294
vt 0.883337 0.050447
vt 0.841844 0.028269
vt 0.796822 0.014612
vt 0.750000 0.010000
vt 0.703178 0.014612
vt 0.658156 0.028269
vt 0.616663 0.050447
vt 0.580294 0.080294
vt 0.550447 0.116663
vt 0.528269 0.158156
vt 0.514612 0.203178
vt 0.510000 0.250000
vt 0.514612 0.296822
vt 0.528269 0.341844
vt 0.550447 0.383337
vt 0.580294 0.419706
vt 0.616663 0.449553
vt 0.658156 0.471731
vt 0.703178 0.485388
s 0
f 73/97/41 74/98/41 76/99/41 75/100/41
f 75/100/42 76/99/42 78/101/42 77/102/42
f 77/102/43 78/101/43 80/103/43 79/104/43
f 79/104/44 80/103/44 82/105/44 81/106/44
f 81/106/45 82/105/45 84/107/45 83/108/45
f 83/108/46 84/107/46 86/109/46 85/110/46
f 85/110/47 86/109/47 88/111/47 87/112/47
f 87/112/48 88/111/48 90/113/48 89/114/48
f 89/114/49 90/113/49 92/115/49 91/116/49
f 91/116/50 92/115/50 94/117/50 93/118/50
f 93/118/51 94/117/51 96/119/51 95/120/51
f 95/120/52 96/119/52 98/121/52 97/122/52
f 97/122/53 98/121/53 100/123/53 99/124/53
f 99/124/54 100/123/54 102/125/54 101/126/54
f 101/126/55 102/125/55 104/127/55 103/128/55
f 103/128/56 104/127/56 106/129/56 105/130/56
f 105/130/57 106/129/57 108/131/57 107/132/57
f 107/132/58 108/131/58 110/133/58 109/134/58
f 109/134/59 110/133/59 112/135/59 111/136/59
f 111/136/60 112/135/60 114/137/60 113/138/60
f 113/138/61 114/137/61 116/139/61 115/140/61
f 115/140/62 116/139/62 118/141/62 117/142/62
f 117/142/63 118/141/63 120/143/63 119/144/63
f 119/144/64 120/143/64 122/145/64 121/146/64
f 121/146/65 122/145/65 124/147/65 123/148/65
f 123/148/66 124/147/66 126/149/66 125/150/66
f 125/150/67 126/149/67 128/151/67 127/152/67
f 127/152/68 128/151/68 130/153/68 129/154/68
f 129/154/69 130/153/69 132/155/69 131/156/69
f 131/156/70 132/155/70 134/157/70 133/158/70
f 76/159/71 74/160/71 136/161/71 134/162/71 132/163/71 130/164/71 128/165/71 126/166/71 124/167/71 122/168/71 120/169/71 118/170/71 116/171/71 114/172/71 112/173/71 110/174/71 108/175/71 106/176/71 104/177/71 102/178/71 100/179/71 98/180/71 96/181/71 94/182/71 92/183/71 90/184/71 88/185/71 86/186/71 84/187/71 82/188/71 80/189/71 78/190/71
f 133/158/72 134/157/72 136/191/72 135/192/72
f 135/192/73 136/191/73 74/193/73 73/194/73
f 73/195/74 75/196/74 77/197/74 79/198/74 81/199/74 83/200/74 85/201/74 87/202/74 89/203/74 91/204/74 93/205/74 95/206/74 97/207/74 99/208/74 101/209/74 103/210/74 105/211/74 107/212/74 109/213/74 111/214/74 113/215/74 115/216/74 117/217/74 119/218/74 121/219/74 123/220/74 125/221/74 127/222/74 129/223/74 131/224/74 133/225/74 135/226/74
o 円柱.001
v -3.385376 0.720628 0.150000
v -2.385376 0.720628 0.150000
v -3.385376 0.701119 0.151921
v -2.385376 0.701119 0.151921
v -3.385376 0.682360 0.157612
v -2.385376 0.682360 0.157612
v -3.385376 0.665071 0.166853
v -2.385376 0.665071 0.166853
v -3.385376 0.649918 0.179289
v -2.385376 0.649918 0.179289
v -3.385376 0.637481 0.194443
v -2.385376 0.637481 0.194443
v -3.385376 0.628240 0.211732
v -2.385376 0.628240 0.211732
v -3.385376 0.622550 0.230491
v -2.385376 0.622550 0.230491
v -3.385376 0.620628 0.250000
v -2.385376 0.620628 0.250000
v -3.385376 0.622550 0.269509
v -2.385376 0.622550 0.269509
v -3.385376 0.628240 0.288268
v -2.385376 0.628240 0.288268
v -3.385376 0.637481 0.305557
v -2.385376 0.637481 0.305557
v -3.385376 0.649918 0.320711
v -2.385376 0.649918 0.320711
v -3.385376 0.665071 0.333147
v -2.385376 0.665071 0.333147
v -3.385376 0.682360 0.342388
v -2.385376 0.682360 0.342388
v -3.385376 0.701119 0.348079
v -2.385376 0.701119 0.348079
v -3.385376 0.720628 0.350000
v -2.385376 0.720628 0.350000
v -3.385376 0.740137 0.348079
v -2.385376 0.740137 0.348079
v -3.385376 0.758897 0.342388
v -2.385376 0.758897 0.342388
v -3.385376 0.776185 0.333147
v -2.385376 0.776185 0.333147
v -3.385376 0.791339 0.320711
v -2.385376 0.791339 0.320711
v -3.385376 0.803775 0.305557
v -2.385376 0.803775 0.305557
v -3.385376 0.813016 0.288268
v -2.385376 0.813016 0.288268
v -3.385376 0.818707 0.269509
v -2.385376 0.818707 0.269509
v -3.385376 0.820628 0.250000
v -2.385376 0.820628 0.250000
v -3.385376 0.818707 0.230491
v -2.385376 0.818707 0.230491
v -3.385376 0.813016 0.211732
v -2.385376 0.813016 0.211732
v -3.385376 0.803775 0.194443
v -2.385376 0.803775 0.194443
v -3.385376 0.791339 0.179289
v -2.385376 0.791339 0.179289
v -3.385376 0.776185 0.166853
v -2.385376 0.776185 0.166853
v -3.385376 0.758897 0.157612
v -2.385376 0.758897 0.157612
v -3.385376 0.740137 0.151921
v -2.385376 0.740137 0.151921
vn -0.0000 -0.0980 -0.9952
vn -0.0000 -0.2903 -0.9569
vn -0.0000 -0.4714 -0.8819
vn -0.0000 -0.6344 -0.7730
vn -0.0000 -0.7730 -0.6344
vn -0.0000 -0.8819 -0.4714
vn -0.0000 -0.9569 -0.2903
vn -0.0000 -0.9952 -0.0980
vn -0.0000 -0.9952 0.0980
vn -0.0000 -0.9569 0.2903
vn -0.0000 -0.8819 0.4714
vn -0.0000 -0.7730 0.6344
vn -0.0000 -0.6344 0.7730
vn -0.0000 -0.4714 0.8819
vn -0.0000 -0.2903 0.9569
vn -0.0000 -0.0980 0.9952
vn -0.0000 0.0980 0.9952
vn -0.0000 0.2903 0.9569
vn -0.0000 0.4714 0.8819
vn -0.0000 0.6344 0.7730
vn -0.0000 0.7730 0.6344
vn -0.0000 0.8819 0.4714
vn -0.0000 0.9569 0.2903
vn -0.0000 0.9952 0.0980
vn -0.0000 0.9952 -0.0980
vn -0.0000 0.9569 -0.2903
vn -0.0000 0.8819 -0.4714
vn -0.0000 0.7730 -0.6344
vn -0.0000 0.6344 -0.7730
vn -0.0000 0.4714 -0.8819
vn 1.0000 -0.0000 -0.0000
vn -0.0000 0.2903 -0.9569
vn -0.0000 0.0980 -0.9952
vn -1.0000 -0.0000 -0.0000
vt 1.000000 0.500000
vt 1.000000 1.000000
vt 0.968750 1.000000
vt 0.968750 0.500000
vt 0.937500 1.000000
vt 0.937500 0.500000
vt 0.906250 1.000000
vt 0.906250 0.500000
vt 0.875000 1.000000
vt 0.875000 0.500000
vt 0.843750 1.000000
vt 0.843750 0.500000
vt 0.812500 1.000000
vt 0.812500 0.500000
vt 0.781250 1.000000
vt 0.781250 0.500000
vt 0.750000 1.000000
vt 0.750000 0.500000
vt 0.718750 1.000000
vt 0.718750 0.500000
vt 0.687500 1.000000
vt 0.687500 0.500000
vt 0.656250 1.000000
vt 0.656250 0.500000
vt 0.625000 1.000000
vt 0.625000 0.500000
vt 0.593750 1.000000
vt 0.593750 0.500000
vt 0.562500 1.000000
vt 0.562500 0.500000
vt 0.531250 1.000000
vt 0.531250 0.500000
vt 0.500000 1.000000
vt 0.500000 0.500000
vt 0.468750 1.000000
vt 0.468750 0.500000
vt 0.437500 1.000000
vt 0.437500 0.500000
vt 0.406250 1.000000
vt 0.406250 0.500000
vt 0.375000 1.000000
vt 0.375000 0.500000
vt 0.343750 1.000000
vt 0.343750 0.500000
vt 0.312500 1.000000
vt 0.312500 0.500000
vt 0.281250 1.000000
vt 0.281250 0.500000
vt 0.250000 1.000000
vt 0.250000 0.500000
vt 0.218750 1.000000
vt 0.218750 0.500000
vt 0.187500 1.000000
vt 0.187500 0.500000
vt 0.156250 1.000000
vt 0.156250 0.500000
vt 0.125000 1.000000
vt 0.125000 0.500000
vt 0.093750 1.000000
vt 0.093750 0.500000
vt 0.062500 1.000000
vt 0.062500 0.500000
vt 0.296822 0.485388
vt 0.250000 0.490000
vt 0.203178 0.485388
vt 0.158156 0.471731
vt 0.116663 0.449553
vt 0.080294 0.419706
vt 0.050447 0.383337
vt 0.028269 0.341844
vt 0.014612 0.296822
vt 0.010000 0.250000
vt 0.014612 0.203178
vt 0.028269 0.158156
vt 0.050447 0.116663
vt 0.080294 0.080294
vt 0.116663 0.050447
vt 0.158156 0.028269
vt 0.203178 0.014612
vt 0.250000 0.010000
vt 0.296822 0.014612
vt 0.341844 0.028269
vt 0.383337 0.050447
vt 0.419706 0.080294
vt 0.449553 0.116663
vt 0.471731 0.158156
vt 0.485388 0.203178
vt 0.490000 0.250000
vt 0.485388 0.296822
vt 0.471731 0.341844
vt 0.449553 0.383337
vt 0.419706 0.419706
vt 0.383337 0.449553
vt 0.341844 0.471731
vt 0.031250 1.000000
vt 0.031250 0.500000
vt 0.000000 1.000000
vt 0.000000 0.500000
vt 0.750000 0.490000
vt 0.796822 0.485388
vt 0.841844 0.471731
vt 0.883337 0.449553
vt 0.919706 0.419706
vt 0.949553 0.383337
vt 0.971731 0.341844
vt 0.985388 0.296822
vt 0.990000 0.250000
vt 0.985388 0.203178
vt 0.971731 0.158156
vt 0.949553 0.116663
vt 0.919706 0.080294
vt 0.883337 0.050447
vt 0.841844 0.028269
vt 0.796822 0.014612
vt 0.750000 0.010000
vt 0.703178 0.014612
vt 0.658156 0.028269
vt 0.616663 0.050447
vt 0.580294 0.080294
vt 0.550447 0.116663
vt 0.528269 0.158156
vt 0.514612 0.203178
vt 0.510000 0.250000
vt 0.514612 0.296822
vt 0.528269 0.341844
vt 0.550447 0.383337
vt 0.580294 0.419706
vt 0.616663 0.449553
vt 0.658156 0.471731
vt 0.703178 0.485388
s 0
f 137/227/75 138/228/75 140/229/75 139/230/75
f 139/230/76 140/229/76 142/231/76 141/232/76
f 141/232/77 142/231/77 144/233/77 143/234/77
f 143/234/78 144/233/78 146/235/78 145/236/78
f 145/236/79 146/235/79 148/237/79 147/238/79
f 147/238/80 148/237/80 150/239/80 149/240/80
f 149/240/81 150/239/81 152/241/81 151/242/81
f 151/242/82 152/241/82 154/243/82 153/244/82
f 153/244/83 154/243/83 156/245/83 155/246/83
f 155/246/84 156/245/84 158/247/84 157/248/84
f 157/248/85 158/247/85 160/249/85 159/250/85
f 159/250/86 160/249/86 162/251/86 161/252/86
f 161/252/87 162/251/87 164/253/87 163/254/87
f 163/254/88 164/253/88 166/255/88 165/256/88
f 165/256/89 166/255/89 168/257/89 167/258/89
f 167/258/90 168/257/90 170/259/90 169/260/90
f 169/260/91 170/259/91 172/261/91 171/262/91
f 171/262/92 172/261/92 174/263/92 173/264/92
f 173/264/93 174/263/93 176/265/93 175/266/93
f 175/266/94 176/265/94 178/267/94 177/268/94
f 177/268/95 178/267/95 180/269/95 179/270/95
f 179/270/96 180/269/96 182/271/96 181/272/96
f 181/272/97 182/271/97 184/273/97 183/274/97
f 183/274/98 184/273/98 186/275/98 185/276/98
f 185/276/99 186/275/99 188/277/99 187/278/99
f 187/278/100 188/277/100 190/279/100 189/280/100
f 189/280/101 190/279/101 192/281/101 191/282/101
f 191/282/102 192/281/102 194/283/102 193/284/102
f 193/284/103 194/283/103 196/285/103 195/286/103
f 195/286/104 196/285/104 198/287/104 197/288/104
f 140/289/105 138/290/105 200/291/105 198/292/105 196/293/105 194/294/105 192/295/105 190/296/105 188/297/105 186/298/105 184/299/105 182/300/105 180/301/105 178/302/105 176/303/105 174/304/105 172/305/105 170/306/105 168/307/105 166/308/105 164/309/105 162/310/105 160/311/105 158/312/105 156/313/105 154/314/105 152/315/105 150/316/105 148/317/105 146/318/105 144/319/105 142/320/105
f 197/288/106 198/287/106 200/321/106 199/322/106
f 199/322/107 200/321/107 138/323/107 137/324/107
f 137/325/108 139/326/108 141/327/108 143/328/108 145/329/108 147/330/108 149/331/108 151/332/108 153/333/108 155/334/108 157/335/108 159/336/108 161/337/108 163/338/108 165/339/108 167/340/108 169/341/108 171/342/108 173/343/108 175/344/108 177/345/108 179/346/108 181/347/108 183/348/108 185/349/108 187/350/108 189/351/108 191/352/108 193/353/108 195/354/108 197/355/108 199/356/108
o 立方体.004
v 1.207342 0.420202 0.694733
v 1.207342 1.012482 0.694733
v 1.261764 0.420202 -0.767294
v 1.261764 1.012482 -0.767294
v 2.291560 0.420202 0.735092
v 1.817970 1.002807 0.717463
v 2.345982 0.420202 -0.726935
v 1.872391 1.002807 -0.744564
vn -0.9993 -0.0000 -0.0372
vn 0.0372 -0.0000 -0.9993
vn 0.7752 0.6310 0.0289
vn -0.0372 -0.0000 0.9993
vn -0.0000 -1.0000 -0.0000
vn 0.0158 0.9999 0.0006
vt 0.375000 0.000000
vt 0.625000 0.000000
vt 0.625000 0.250000
vt 0.375000 0.250000
vt 0.625000 0.500000
vt 0.375000 0.500000
vt 0.625000 0.750000
vt 0.375000 0.750000
vt 0.625000 1.000000
vt 0.375000 1.000000
vt 0.125000 0.500000
vt 0.125000 0.750000
vt 0.875000 0.500000
vt 0.875000 0.750000
s 0
f 201/357/109 202/358/109 204/359/109 203/360/109
f 203/360/110 204/359/110 208/361/110 207/362/110
f 207/362/111 208/361/111 206/363/111 205/364/111
f 205/364/112 206/363/112 202/365/112 201/366/112
f 203/367/113 207/362/113 205/364/113 201/368/113
f 208/361/114 204/369/114 202/370/114 206/363/114
o 円柱.002
v 2.930717 0.720628 -0.123247
v 1.931409 0.720628 -0.160445
v 2.930788 0.701119 -0.125167
v 1.931480 0.701119 -0.162365
v 2.931000 0.682360 -0.130854
v 1.931692 0.682360 -0.168051
v 2.931343 0.665071 -0.140088
v 1.932035 0.665071 -0.177286
v 2.931806 0.649918 -0.152516
v 1.932498 0.649918 -0.189714
v 2.932370 0.637481 -0.167659
v 1.933062 0.637481 -0.204857
v 2.933013 0.628240 -0.184936
v 1.933705 0.628240 -0.222134
v 2.933711 0.622550 -0.203682
v 1.934403 0.622550 -0.240880
v 2.934436 0.620628 -0.223178
v 1.935128 0.620628 -0.260375
v 2.935162 0.622550 -0.242673
v 1.935854 0.622550 -0.279871
v 2.935860 0.628240 -0.261419
v 1.936552 0.628240 -0.298617
v 2.936503 0.637481 -0.278696
v 1.937195 0.637481 -0.315894
v 2.937067 0.649918 -0.293839
v 1.937759 0.649918 -0.331037
v 2.937529 0.665071 -0.306267
v 1.938221 0.665071 -0.343465
v 2.937873 0.682360 -0.315502
v 1.938565 0.682360 -0.352699
v 2.938085 0.701119 -0.321188
v 1.938777 0.701119 -0.358386
v 2.938156 0.720628 -0.323108
v 1.938848 0.720628 -0.360306
v 2.938085 0.740137 -0.321188
v 1.938777 0.740137 -0.358386
v 2.937873 0.758897 -0.315502
v 1.938565 0.758897 -0.352699
v 2.937529 0.776185 -0.306267
v 1.938221 0.776185 -0.343465
v 2.937067 0.791339 -0.293839
v 1.937759 0.791339 -0.331037
v 2.936503 0.803775 -0.278696
v 1.937195 0.803775 -0.315894
v 2.935860 0.813016 -0.261419
v 1.936552 0.813016 -0.298617
v 2.935162 0.818707 -0.242673
v 1.935854 0.818707 -0.279871
v 2.934436 0.820628 -0.223178
v 1.935128 0.820628 -0.260375
v 2.933711 0.818707 -0.203682
v 1.934403 0.818707 -0.240880
v 2.933013 0.813016 -0.184936
v 1.933705 0.813016 -0.222134
v 2.932370 0.803775 -0.167659
v 1.933062 0.803775 -0.204857
v 2.931806 0.791339 -0.152516
v 1.932498 0.791339 -0.189714
v 2.931343 0.776185 -0.140088
v 1.932035 0.776185 -0.177286
v 2.931000 0.758897 -0.130854
v 1.931692 0.758897 -0.168051
v 2.930788 0.740137 -0.125167
v 1.931480 0.740137 -0.162365
vn -0.0370 -0.0980 0.9945
vn -0.0356 -0.2903 0.9563
vn -0.0328 -0.4714 0.8813
vn -0.0288 -0.6344 0.7725
vn -0.0236 -0.7730 0.6340
vn -0.0175 -0.8819 0.4711
vn -0.0108 -0.9569 0.2901
vn -0.0036 -0.9952 0.0979
vn 0.0036 -0.9952 -0.0979
vn 0.0108 -0.9569 -0.2901
vn 0.0175 -0.8819 -0.4711
vn 0.0236 -0.7730 -0.6340
vn 0.0288 -0.6344 -0.7725
vn 0.0328 -0.4714 -0.8813
vn 0.0356 -0.2903 -0.9563
vn 0.0370 -0.0980 -0.9945
vn 0.0370 0.0980 -0.9945
vn 0.0356 0.2903 -0.9563
vn 0.0328 0.4714 -0.8813
vn 0.0288 0.6344 -0.7725
vn 0.0236 0.7730 -0.6340
vn 0.0175 0.8819 -0.4711
vn 0.0108 0.9569 -0.2901
vn 0.0036 0.9952 -0.0979
vn -0.0036 0.9952 0.0979
vn -0.0108 0.9569 0.2901
vn -0.0175 0.8819 0.4711
vn -0.0236 0.7730 0.6340
vn -0.0288 0.6344 0.7725
vn -0.0328 0.4714 0.8813
vn -0.9993 -0.0000 -0.0372
vn -0.0356 0.2903 0.9563
vn -0.0370 0.0980 0.9945
vn 0.9993 -0.0000 0.0372
vt 1.000000 0.500000
vt 1.000000 1.000000
vt 0.968750 1.000000
vt 0.968750 0.500000
vt 0.937500 1.000000
vt 0.937500 0.500000
vt 0.906250 1.000000
vt 0.906250 0.500000
vt 0.875000 1.000000
vt 0.875000 0.500000
vt 0.843750 1.000000
vt 0.843750 0.500000
vt 0.812500 1.000000
vt 0.812500 0.500000
vt 0.781250 1.000000
vt 0.781250 0.500000
vt 0.750000 1.000000
vt 0.750000 0.500000
vt 0.718750 1.000000
vt 0.718750 0.500000
vt 0.687500 1.000000
vt 0.687500 0.500000
vt 0.656250 1.000000
vt 0.656250 0.500000
vt 0.625000 1.000000
vt 0.625000 0.500000
vt 0.593750 1.000000
vt 0.593750 0.500000
vt 0.562500 1.000000
vt 0.562500 0.500000
vt 0.531250 1.000000
vt 0.531250 0.500000
vt 0.500000 1.000000
vt 0.500000 0.500000
vt 0.468750 1.000000
vt 0.468750 0.500000
vt 0.437500 1.000000
vt 0.437500 0.500000
vt 0.406250 1.000000
vt 0.406250 0.500000
vt 0.375000 1.000000
vt 0.375000 0.500000
vt 0.343750 1.000000
vt 0.343750 0.500000
vt 0.312500 1.000000
vt 0.312500 0.500000
vt 0.281250 1.000000
vt 0.281250 0.500000
vt 0.250000 1.000000
vt 0.250000 0.500000
vt 0.218750 1.000000
vt 0.218750 0.500000
vt 0.187500 1.000000
vt 0.187500 0.500000
vt 0.156250 1.000000
vt 0.156250 0.500000
vt 0.125000 1.000000
vt 0.125000 0.500000
vt 0.093750 1.000000
vt 0.093750 0.500000
vt 0.062500 1.000000
vt 0.062500 0.500000
vt 0.296822 0.485388
vt 0.250000 0.490000
vt 0.203178 0.485388
vt 0.158156 0.471731
vt 0.116663 0.449553
vt 0.080294 0.419706
vt 0.050447 0.383337
vt 0.028269 0.341844
vt 0.014612 0.296822
vt 0.010000 0.250000
vt 0.014612 0.203178
vt 0.028269 0.158156
vt 0.050447 0.116663
vt 0.080294 0.080294
vt 0.116663 0.050447
vt 0.158156 0.028269
vt 0.203178 0.014612
vt 0.250000 0.010000
vt 0.296822 0.014612
vt 0.341844 0.028269
vt 0.383337 0.050447
vt 0.419706 0.080294
vt 0.449553 0.116663
vt 0.471731 0.158156
vt 0.485388 0.203178
vt 0.490000 0.250000
vt 0.485388 0.296822
vt 0.471731 0.341844
vt 0.449553 0.383337
vt 0.419706 0.419706
vt 0.383337 0.449553
vt 0.341844 0.471731
vt 0.031250 1.000000
vt 0.031250 0.500000
vt 0.000000 1.000000
vt 0.000000 0.500000
vt 0.750000 0.490000
vt 0.796822 0.485388
vt 0.841844 0.471731
vt 0.883337 0.449553
vt 0.919706 0.419706
vt 0.949553 0.383337
vt 0.971731 0.341844
vt 0.985388 0.296822
vt 0.990000 0.250000
vt 0.985388 0.203178
vt 0.971731 0.158156
vt 0.949553 0.116663
vt 0.919706 0.080294
vt 0.883337 0.050447
vt 0.841844 0.028269
vt 0.796822 0.014612
vt 0.750000 0.010000
vt 0.703178 0.014612
vt 0.658156 0.028269
vt 0.616663 0.050447
vt 0.580294 0.080294
vt 0.550447 0.116663
vt 0.528269 0.158156
vt 0.514612 0.203178
vt 0.510000 0.250000
vt 0.514612 0.296822
vt 0.528269 0.341844
vt 0.550447 0.383337
vt 0.580294 0.419706
vt 0.616663 0.449553
vt 0.658156 0.471731
vt 0.703178 0.485388
s 0
f 209/371/115 210/372/115 212/373/115 211/374/115
f 211/374/116 212/373/116 214/375/116 213/376/116
f 213/376/117 214/375/117 216/377/117 215/378/117
f 215/378/118 216/377/118 218/379/118 217/380/118
f 217/380/119 218/379/119 220/381/119 219/382/119
f 219/382/120 220/381/120 222/383/120 221/384/120
f 221/384/121 222/383/121 224/385/121 223/386/121
f 223/386/122 224/385/122 226/387/122 225/388/122
f 225/388/123 226/387/123 228/389/123 227/390/123
f 227/390/124 228/389/124 230/391/124 229/392/124
f 229/392/125 230/391/125 232/393/125 231/394/125
f 231/394/126 232/393/126 234/395/126 233/396/126
f 233/396/127 234/395/127 236/397/127 235/398/127
f 235/398/128 236/397/128 238/399/128 237/400/128
f 237/400/129 238/399/129 240/401/129 239/402/129
f 239/402/130 240/401/130 242/403/130 241/404/130
f 241/404/131 242/403/131 244/405/131 243/406/131
f 243/406/132 244/405/132 246/407/132 245/408/132
f 245/408/133 246/407/133 248/409/133 247/410/133
f 247/410/134 248/409/134 250/411/134 249/412/134
f 249/412/135 250/411/135 252/413/135 251/414/135
f 251/414/136 252/413/136 254/415/136 253/416/136
f 253/416/137 254/415/137 256/417/137 255/418/137
f 255/418/138 256/417/138 258/419/138 257/420/138
f 257/420/139 258/419/139 260/421/139 259/422/139
f 259/422/140 260/421/140 262/423/140 261/424/140
f 261/424/141 262/423/141 264/425/141 263/426/141
f 263/426/142 264/425/142 266/427/142 265/428/142
f 265/428/143 266/427/143 268/429/143 267/430/143
f 267/430/144 268/429/144 270/431/144 269/432/144
f 212/433/145 210/434/145 272/435/145 270/436/145 268/437/145 266/438/145 264/439/145 262/440/145 260/441/145 258/442/145 256/443/145 254/444/145 252/445/145 250/446/145 248/447/145 246/448/145 244/449/145 242/450/145 240/451/145 238/452/145 236/453/145 234/454/145 232/455/145 230/456/145 228/457/145 226/458/145 224/459/145 222/460/145 220/461/145 218/462/145 216/463/145 214/464/145
f 269/432/146 270/431/146 272/465/146 271/466/146
f 271/466/147 272/465/147 210/467/147 209/468/147
f 209/469/148 211/470/148 213/471/148 215/472/148 217/473/148 219/474/148 221/475/148 223/476/148 225/477/148 227/478/148 229/479/148 231/480/148 233/481/148 235/482/148 237/483/148 239/484/148 241/485/148 243/486/148 245/487/148 247/488/148 249/489/148 251/490/148 253/491/148 255/492/148 257/493/148 259/494/148 261/495/148 263/496/148 265/497/148 267/498/148 269/499/148 271/500/148
o 円柱.003
v 2.916183 0.720628 0.357878
v 1.916183 0.720628 0.357877
v 2.916183 0.701119 0.355956
v 1.916183 0.701119 0.355956
v 2.916183 0.682360 0.350265
v 1.916183 0.682360 0.350265
v 2.916183 0.665071 0.341024
v 1.916183 0.665071 0.341024
v 2.916183 0.649918 0.328588
v 1.916183 0.649918 0.328588
v 2.916183 0.637481 0.313435
v 1.916183 0.637481 0.313434
v 2.916183 0.628240 0.296146
v 1.916183 0.628240 0.296146
v 2.916183 0.622550 0.277387
v 1.916183 0.622550 0.277386
v 2.916183 0.620628 0.257877
v 1.916183 0.620628 0.257877
v 2.916183 0.622550 0.238368
v 1.916183 0.622550 0.238368
v 2.916183 0.628240 0.219609
v 1.916183 0.628240 0.219609
v 2.916183 0.637481 0.202320
v 1.916183 0.637481 0.202320
v 2.916183 0.649918 0.187167
v 1.916183 0.649918 0.187167
v 2.916183 0.665071 0.174731
v 1.916183 0.665071 0.174730
v 2.916183 0.682360 0.165490
v 1.916183 0.682360 0.165489
v 2.916183 0.701119 0.159799
v 1.916183 0.701119 0.159799
v 2.916183 0.720628 0.157878
v 1.916183 0.720628 0.157877
v 2.916183 0.740137 0.159799
v 1.916183 0.740137 0.159799
v 2.916183 0.758897 0.165490
v 1.916183 0.758897 0.165489
v 2.916183 0.776185 0.174731
v 1.916183 0.776185 0.174730
v 2.916183 0.791339 0.187167
v 1.916183 0.791339 0.187167
v 2.916183 0.803775 0.202320
v 1.916183 0.803775 0.202320
v 2.916183 0.813016 0.219609
v 1.916183 0.813016 0.219609
v 2.916183 0.818707 0.238368
v 1.916183 0.818707 0.238368
v 2.916183 0.820628 0.257877
v 1.916183 0.820628 0.257877
v 2.916183 0.818707 0.277387
v 1.916183 0.818707 0.277386
v 2.916183 0.813016 0.296146
v 1.916183 0.813016 0.296146
v 2.916183 0.803775 0.313435
v 1.916183 0.803775 0.313434
v 2.916183 0.791339 0.328588
v 1.916183 0.791339 0.328588
v 2.916183 0.776185 0.341024
v 1.916183 0.776185 0.341024
v 2.916183 0.758897 0.350265
v 1.916183 0.758897 0.350265
v 2.916183 0.740137 0.355956
v 1.916183 0.740137 0.355956
vn -0.0000 -0.0980 0.9952
vn -0.0000 -0.2903 0.9569
vn -0.0000 -0.4714 0.8819
vn -0.0000 -0.6344 0.7730
vn -0.0000 -0.7730 0.6344
vn -0.0000 -0.8819 0.4714
vn -0.0000 -0.9569 0.2903
vn -0.0000 -0.9952 0.0980
vn -0.0000 -0.9952 -0.0980
vn -0.0000 -0.9569 -0.2903
vn -0.0000 -0.8819 -0.4714
vn -0.0000 -0.7730 -0.6344
vn -0.0000 -0.6344 -0.7730
vn -0.0000 -0.4714 -0.8819
vn -0.0000 -0.2903 -0.9569
vn -0.0000 -0.0980 -0.9952
vn -0.0000 0.0980 -0.9952
vn -0.0000 0.2903 -0.9569
vn -0.0000 0.4714 -0.8819
vn -0.0000 0.6344 -0.7730
vn -0.0000 0.7730 -0.6344
vn -0.0000 0.8819 -0.4714
vn -0.0000 0.9569 -0.2903
vn -0.0000 0.9952 -0.0980
vn -0.0000 0.9952 0.0980
vn -0.0000 0.9569 0.2903
vn -0.0000 0.8819 0.4714
vn -0.0000 0.7730 0.6344
vn -0.0000 0.6344 0.7730
vn -0.0000 0.4714 0.8819
vn -1.0000 -0.0000 -0.0000
vn -0.0000 0.2903 0.9569
vn -0.0000 0.0980 0.9952
vn 1.0000 -0.0000 -0.0000
vt 1.000000 0.500000
vt 1.000000 1.000000
vt 0.968750 1.000000
vt 0.968750 0.500000
vt 0.937500 1.000000
vt 0.937500 0.500000
vt 0.906250 1.000000
vt 0.906250 0.500000
vt 0.875000 1.000000
vt 0.875000 0.500000
vt 0.843750 1.000000
vt 0.843750 0.500000
vt 0.812500 1.000000
vt 0.812500 0.500000
vt 0.781250 1.000000
vt 0.781250 0.500000
vt 0.750000 1.000000
vt 0.750000 0.500000
vt 0.718750 1.000000
vt 0.718750 0.500000
vt 0.687500 1.000000
vt 0.687500 0.500000
vt 0.656250 1.000000
vt 0.656250 0.500000
vt 0.625000 1.000000
vt 0.625000 0.500000
vt 0.593750 1.000000
vt 0.593750 0.500000
vt 0.562500 1.000000
vt 0.562500 0.500000
vt 0.531250 1.000000
vt 0.531250 0.500000
vt 0.500000 1.000000
vt 0.500000 0.500000
vt 0.468750 1.000000
vt 0.468750 0.500000
vt 0.437500 1.000000
vt 0.437500 0.500000
vt 0.406250 1.000000
vt 0.406250 0.500000
vt 0.375000 1.000000
vt 0.375000 0.500000
vt 0.343750 1.000000
vt 0.343750 0.500000
vt 0.312500 1.000000
vt 0.312500 0.500000
vt 0.281250 1.000000
vt 0.281250 0.500000
vt 0.250000 1.000000
vt 0.250000 0.500000
vt 0.218750 1.000000
vt 0.218750 0.500000
vt 0.187500 1.000000
vt 0.187500 0.500000
vt 0.156250 1.000000
vt 0.156250 0.500000
vt 0.125000 1.000000
vt 0.125000 0.500000
vt 0.093750 1.000000
vt 0.093750 0.500000
vt 0.062500 1.000000
vt 0.062500 0.500000
vt 0.296822 0.485388
vt 0.250000 0.490000
vt 0.203178 0.485388
vt 0.158156 0.471731
vt 0.116663 0.449553
vt 0.080294 0.419706
vt 0.050447 0.383337
vt 0.028269 0.341844
vt 0.014612 0.296822
vt 0.010000 0.250000
vt 0.014612 0.203178
vt 0.028269 0.158156
vt 0.050447 0.116663
vt 0.080294 0.080294
vt 0.116663 0.050447
vt 0.158156 0.028269
vt 0.203178 0.014612
vt 0.250000 0.010000
vt 0.296822 0.014612
vt 0.341844 0.028269
vt 0.383337 0.050447
vt 0.419706 0.080294
vt 0.449553 0.116663
vt 0.471731 0.158156
vt 0.485388 0.203178
vt 0.490000 0.250000
vt 0.485388 0.296822
vt 0.471731 0.341844
vt 0.449553 0.383337
vt 0.419706 0.419706
vt 0.383337 0.449553
vt 0.341844 0.471731
vt 0.031250 1.000000
vt 0.031250 0.500000
vt 0.000000 1.000000
vt 0.000000 0.500000
vt 0.750000 0.490000
vt 0.796822 0.485388
vt 0.841844 0.471731
vt 0.883337 0.449553
vt 0.919706 0.419706
vt 0.949553 0.383337
vt 0.971731 0.341844
vt 0.985388 0.296822
vt 0.990000 0.250000
vt 0.985388 0.203178
vt 0.971731 0.158156
vt 0.949553 0.116663
vt 0.919706 0.080294
vt 0.883337 0.050447
vt 0.841844 0.028269
vt 0.796822 0.014612
vt 0.750000 0.010000
vt 0.703178 0.014612
vt 0.658156 0.028269
vt 0.616663 0.050447
vt 0.580294 0.080294
vt 0.550447 0.116663
vt 0.528269 0.158156
vt 0.514612 0.203178
vt 0.510000 0.250000
vt 0.514612 0.296822
vt 0.528269 0.341844
vt 0.550447 0.383337
vt 0.580294 0.419706
vt 0.616663 0.449553
vt 0.658156 0.471731
vt 0.703178 0.485388
s 0
f 273/501/149 274/502/149 276/503/149 275/504/149
f 275/504/150 276/503/150 278/505/150 277/506/150
f 277/506/151 278/505/151 280/507/151 279/508/151
f 279/508/152 280/507/152 282/509/152 281/510/152
f 281/510/153 282/509/153 284/511/153 283/512/153
f 283/512/154 284/511/154 286/513/154 285/514/154
f 285/514/155 286/513/155 288/515/155 287/516/155
f 287/516/156 288/515/156 290/517/156 289/518/156
f 289/518/157 290/517/157 292/519/157 291/520/157
f 291/520/158 292/519/158 294/521/158 293/522/158
f 293/522/159 294/521/159 296/523/159 295/524/159
f 295/524/160 296/523/160 298/525/160 297/526/160
f 297/526/161 298/525/161 300/527/161 299/528/161
f 299/528/162 300/527/162 302/529/162 301/530/162
f 301/530/163 302/529/163 304/531/163 303/532/163
f 303/532/164 304/531/164 306/533/164 305/534/164
f 305/534/165 306/533/165 308/535/165 307/536/165
f 307/536/166 308/535/166 310/537/166 309/538/166
f 309/538/167 310/537/167 312/539/167 311/540/167
f 311/540/168 312/539/168 314/541/168 313/542/168
f 313/542/169 314/541/169 316/543/169 315/544/169
f 315/544/170 316/543/170 318/545/170 317/546/170
f 317/546/171 318/545/171 320/547/171 319/548/171
f 319/548/172 320/547/172 322/549/172 321/550/172
f 321/550/173 322/549/173 324/551/173 323/552/173
f 323/552/174 324/551/174 326/553/174 325/554/174
f 325/554/175 326/553/175 328/555/175 327/556/175
f 327/556/176 328/555/176 330/557/176 329/558/176
f 329/558/177 330/557/177 332/559/177 331/560/177
f 331/560/178 332/559/178 334/561/178 333/562/178
f 276/563/179 274/564/179 336/565/179 334/566/179 332/567/179 330/568/179 328/569/179 326/570/179 324/571/179 322/572/179 320/573/179 318/574/179 316/575/179 314/576/179 312/577/179 310/578/179 308/579/179 306/580/179 304/581/179 302/582/179 300/583/179 298/584/179 296/585/179 294/586/179 292/587/179 290/588/179 288/589/179 286/590/179 284/591/179 282/592/179 280/593/179 278/594/179
f 333/562/180 334/561/180 336/595/180 335/596/180
f 335/596/181 336/595/181 274/597/181 273/598/181
f 273/599/182 275/600/182 277/601/182 279/602/182 281/603/182 283/604/182 285/605/182 287/606/182 289/607/182 291/608/182 293/609/182 295/610/182 297/611/182 299/612/182 301/613/182 303/614/182 305/615/182 307/616/182 309/617/182 311/618/182 313/619/182 315/620/182 317/621/182 319/622/182 321/623/182 323/624/182 325/625/182 327/626/182 329/627/182 331/628/182 333/629/182 335/630/182
